<svg width="960" height="340" viewBox="0 0 960 340" fill="none" xmlns="http://www.w3.org/2000/svg">
  <defs>
    <linearGradient id="deckBg" x1="40" y1="20" x2="920" y2="320" gradientUnits="userSpaceOnUse">
      <stop stop-color="#06111A"/>
      <stop offset="0.48" stop-color="#170710"/>
      <stop offset="1" stop-color="#081820"/>
    </linearGradient>
    <linearGradient id="deckStroke" x1="70" y1="36" x2="896" y2="286" gradientUnits="userSpaceOnUse">
      <stop stop-color="#00FFC8"/>
      <stop offset="1" stop-color="#FF4D7E"/>
    </linearGradient>
    <pattern id="microGrid" width="18" height="18" patternUnits="userSpaceOnUse">
      <path d="M18 0H0V18" stroke="#9BE7FF" stroke-opacity="0.08" stroke-width="1"/>
    </pattern>
    <filter id="softGlow" x="-30%" y="-30%" width="160%" height="160%">
      <feGaussianBlur stdDeviation="5"/>
    </filter>
  </defs>

  <rect x="12" y="12" width="936" height="316" rx="28" fill="url(#deckBg)"/>
  <rect x="12" y="12" width="936" height="316" rx="28" fill="url(#microGrid)"/>
  <rect x="26" y="26" width="908" height="288" rx="24" stroke="url(#deckStroke)" stroke-opacity="0.58"/>

  <circle cx="86" cy="46" r="8" fill="#FF4D7E"/>
  <circle cx="112" cy="46" r="8" fill="#FFD166"/>
  <circle cx="138" cy="46" r="8" fill="#00FFC8"/>

  <text x="54" y="100" fill="#F8FAFC" font-family="Trebuchet MS, Segoe UI, Arial, sans-serif" font-size="38" font-weight="700" letter-spacing="0.5">NEON COMMAND DECK</text>
  <text x="56" y="130" fill="#9FB3C8" font-family="Consolas, monospace" font-size="15">routing intelligence // voice systems // local inference</text>
  <text x="56" y="152" fill="#9FB3C8" font-family="Consolas, monospace" font-size="15">cute familiars // production-minded neon stack</text>

  <g transform="translate(56 178)">
    <rect width="98" height="28" rx="14" fill="#0D1A2B" stroke="#00FFC8" stroke-opacity="0.4"/>
    <text x="18" y="19" fill="#00FFC8" font-family="Consolas, monospace" font-size="13">VOICE</text>
  </g>
  <g transform="translate(166 178)">
    <rect width="98" height="28" rx="14" fill="#0D1A2B" stroke="#FF4D7E" stroke-opacity="0.4"/>
    <text x="18" y="19" fill="#FF7AA6" font-family="Consolas, monospace" font-size="13">VISION</text>
  </g>
  <g transform="translate(276 178)">
    <rect width="98" height="28" rx="14" fill="#0D1A2B" stroke="#8B6BFF" stroke-opacity="0.4"/>
    <text x="22" y="19" fill="#9E88FF" font-family="Consolas, monospace" font-size="13">TOOLS</text>
  </g>

  <g transform="translate(54 226)">
    <rect width="366" height="70" rx="18" fill="#0C1526" stroke="#00FFC8" stroke-opacity="0.35"/>
    <text x="18" y="28" fill="#00FFC8" font-family="Consolas, monospace" font-size="14">&gt; boot_profile.exe</text>
    <text x="18" y="51" fill="#F8FAFC" font-family="Consolas, monospace" font-size="14">status: online</text>
    <text x="18" y="72" fill="#F8FAFC" font-family="Consolas, monospace" font-size="14">mode: local-first / anime-core / sharp systems</text>
    <rect x="264" y="44" width="78" height="10" rx="5" fill="#112038"/>
    <rect x="264" y="44" width="18" height="10" rx="5" fill="#00FFC8">
      <animate attributeName="width" values="18;66;44;78;18" dur="4.2s" repeatCount="indefinite"/>
    </rect>
  </g>

  <g transform="translate(456 74)">
    <rect width="190" height="180" rx="22" fill="#10182A" stroke="#FF4D7E" stroke-opacity="0.38"/>
    <circle cx="95" cy="86" r="50" stroke="#263854" stroke-width="12"/>
    <circle cx="95" cy="86" r="50" stroke="#00FFC8" stroke-width="12" stroke-linecap="round" stroke-dasharray="198 118">
      <animateTransform attributeName="transform" type="rotate" values="0 95 86;360 95 86" dur="8s" repeatCount="indefinite"/>
    </circle>
    <path d="M95 44V86L126 78" stroke="#FF4D7E" stroke-width="5" stroke-linecap="round" stroke-linejoin="round">
      <animateTransform attributeName="transform" type="rotate" values="0 95 86;360 95 86" dur="5.8s" repeatCount="indefinite"/>
    </path>
    <text x="50" y="152" fill="#F8FAFC" font-family="Trebuchet MS, Segoe UI, Arial, sans-serif" font-size="16" font-weight="700">Intent Engine</text>
    <text x="49" y="171" fill="#8FA5B8" font-family="Consolas, monospace" font-size="12">score -> route -> act</text>
  </g>

  <g transform="translate(680 74)">
    <rect width="220" height="80" rx="20" fill="#10182A" stroke="#00FFC8" stroke-opacity="0.34"/>
    <text x="18" y="28" fill="#F8FAFC" font-family="Trebuchet MS, Segoe UI, Arial, sans-serif" font-size="16" font-weight="700">Signal Wave</text>
    <path d="M20 53C36 53 36 28 52 28C68 28 68 60 84 60C100 60 100 36 116 36C132 36 132 54 148 54C164 54 164 20 180 20C196 20 196 52 204 52" stroke="#FF4D7E" stroke-width="4.5" stroke-linecap="round" fill="none">
      <animate attributeName="d" dur="3.2s" repeatCount="indefinite"
        values="M20 53C36 53 36 28 52 28C68 28 68 60 84 60C100 60 100 36 116 36C132 36 132 54 148 54C164 54 164 20 180 20C196 20 196 52 204 52;
                M20 42C36 42 36 58 52 58C68 58 68 24 84 24C100 24 100 46 116 46C132 46 132 20 148 20C164 20 164 58 180 58C196 58 196 42 204 42;
                M20 53C36 53 36 28 52 28C68 28 68 60 84 60C100 60 100 36 116 36C132 36 132 54 148 54C164 54 164 20 180 20C196 20 196 52 204 52"/>
    </path>
  </g>

  <g transform="translate(680 174)">
    <rect width="220" height="80" rx="20" fill="#10182A" stroke="#FF4D7E" stroke-opacity="0.34"/>
    <text x="18" y="28" fill="#F8FAFC" font-family="Trebuchet MS, Segoe UI, Arial, sans-serif" font-size="16" font-weight="700">Modules</text>
    <rect x="18" y="45" width="62" height="14" rx="7" fill="#102038"/>
    <rect x="88" y="45" width="68" height="14" rx="7" fill="#102038"/>
    <rect x="164" y="45" width="40" height="14" rx="7" fill="#102038"/>
    <rect x="18" y="45" width="62" height="14" rx="7" fill="#00FFC8" opacity="0.85">
      <animate attributeName="opacity" values="0.35;1;0.35" dur="1.8s" repeatCount="indefinite"/>
    </rect>
    <rect x="88" y="45" width="68" height="14" rx="7" fill="#FF4D7E" opacity="0.55">
      <animate attributeName="opacity" values="0.95;0.2;0.95" dur="2.5s" repeatCount="indefinite"/>
    </rect>
    <rect x="164" y="45" width="40" height="14" rx="7" fill="#7C5CFF" opacity="0.55">
      <animate attributeName="opacity" values="0.25;0.9;0.25" dur="3.1s" repeatCount="indefinite"/>
    </rect>
  </g>

  <g filter="url(#softGlow)">
    <circle cx="878" cy="38" r="20" fill="#00FFC8" fill-opacity="0.12"/>
    <circle cx="836" cy="286" r="24" fill="#FF4D7E" fill-opacity="0.12"/>
    <circle cx="408" cy="42" r="26" fill="#00FFC8" fill-opacity="0.08"/>
  </g>
</svg>
