<svg width="960" height="300" viewBox="0 0 960 300" fill="none" xmlns="http://www.w3.org/2000/svg">
  <defs>
    <linearGradient id="deckBg" x1="40" y1="20" x2="920" y2="280" gradientUnits="userSpaceOnUse">
      <stop stop-color="#061019"/>
      <stop offset="0.48" stop-color="#160710"/>
      <stop offset="1" stop-color="#08171E"/>
    </linearGradient>
    <linearGradient id="deckStroke" x1="96" y1="42" x2="866" y2="257" gradientUnits="userSpaceOnUse">
      <stop stop-color="#00FFC8"/>
      <stop offset="1" stop-color="#FF4D7E"/>
    </linearGradient>
    <pattern id="microGrid" width="18" height="18" patternUnits="userSpaceOnUse">
      <path d="M18 0H0V18" stroke="#9BE7FF" stroke-opacity="0.08" stroke-width="1"/>
    </pattern>
    <filter id="deckBlur" x="-30%" y="-30%" width="160%" height="160%">
      <feGaussianBlur stdDeviation="4"/>
    </filter>
  </defs>

  <rect x="10" y="10" width="940" height="280" rx="28" fill="url(#deckBg)"/>
  <rect x="10" y="10" width="940" height="280" rx="28" fill="url(#microGrid)"/>
  <rect x="24" y="24" width="912" height="252" rx="22" stroke="url(#deckStroke)" stroke-opacity="0.55"/>

  <circle cx="96" cy="50" r="7" fill="#FF4D7E"/>
  <circle cx="118" cy="50" r="7" fill="#FFD166"/>
  <circle cx="140" cy="50" r="7" fill="#00FFC8"/>

  <text x="56" y="96" fill="#F8FAFC" font-family="Segoe UI, Arial, sans-serif" font-size="28" font-weight="700">NEON COMMAND DECK</text>
  <text x="56" y="124" fill="#8FA5B8" font-family="Consolas, monospace" font-size="15">routing intelligence / voice systems / local inference / interface experiments</text>

  <g transform="translate(56 150)">
    <rect width="348" height="94" rx="18" fill="#0C1526" stroke="#00FFC8" stroke-opacity="0.35"/>
    <text x="20" y="28" fill="#00FFC8" font-family="Consolas, monospace" font-size="14">&gt; boot_profile.exe</text>
    <text x="20" y="54" fill="#F8FAFC" font-family="Consolas, monospace" font-size="14">status: online</text>
    <text x="20" y="76" fill="#F8FAFC" font-family="Consolas, monospace" font-size="14">mode: local-first / anime-core / production-minded</text>
    <rect x="252" y="58" width="72" height="10" rx="5" fill="#102038"/>
    <rect x="252" y="58" width="18" height="10" rx="5" fill="#00FFC8">
      <animate attributeName="width" values="18;66;42;72;18" dur="4s" repeatCount="indefinite"/>
    </rect>
  </g>

  <g transform="translate(436 78)">
    <rect width="188" height="166" rx="22" fill="#0D1528" stroke="#FF4D7E" stroke-opacity="0.4"/>
    <circle cx="94" cy="83" r="46" stroke="#24354E" stroke-width="12"/>
    <circle cx="94" cy="83" r="46" stroke="#00FFC8" stroke-width="12" stroke-linecap="round" stroke-dasharray="188 120">
      <animateTransform attributeName="transform" type="rotate" values="0 94 83;360 94 83" dur="8s" repeatCount="indefinite"/>
    </circle>
    <path d="M94 41V83L122 98" stroke="#FF4D7E" stroke-width="4" stroke-linecap="round" stroke-linejoin="round">
      <animateTransform attributeName="transform" type="rotate" values="0 94 83;360 94 83" dur="6s" repeatCount="indefinite"/>
    </path>
    <text x="47" y="149" fill="#F8FAFC" font-family="Segoe UI, Arial, sans-serif" font-size="16" font-weight="700">Intent Engine</text>
  </g>

  <g transform="translate(650 78)">
    <rect width="246" height="74" rx="18" fill="#0D1528" stroke="#00FFC8" stroke-opacity="0.35"/>
    <text x="18" y="28" fill="#F8FAFC" font-family="Segoe UI, Arial, sans-serif" font-size="16" font-weight="700">Signal Wave</text>
    <path d="M18 52C36 52 36 24 54 24C72 24 72 62 90 62C108 62 108 34 126 34C144 34 144 50 162 50C180 50 180 18 198 18C216 18 216 52 228 52" stroke="#FF4D7E" stroke-width="4" stroke-linecap="round" fill="none">
      <animate attributeName="d" dur="3.2s" repeatCount="indefinite"
        values="M18 52C36 52 36 24 54 24C72 24 72 62 90 62C108 62 108 34 126 34C144 34 144 50 162 50C180 50 180 18 198 18C216 18 216 52 228 52;
                M18 40C36 40 36 58 54 58C72 58 72 24 90 24C108 24 108 46 126 46C144 46 144 18 162 18C180 18 180 58 198 58C216 58 216 40 228 40;
                M18 52C36 52 36 24 54 24C72 24 72 62 90 62C108 62 108 34 126 34C144 34 144 50 162 50C180 50 180 18 198 18C216 18 216 52 228 52"/>
    </path>
  </g>

  <g transform="translate(650 170)">
    <rect width="246" height="74" rx="18" fill="#0D1528" stroke="#FF4D7E" stroke-opacity="0.35"/>
    <text x="18" y="28" fill="#F8FAFC" font-family="Segoe UI, Arial, sans-serif" font-size="16" font-weight="700">Modules</text>
    <rect x="18" y="42" width="58" height="14" rx="7" fill="#102038"/>
    <rect x="82" y="42" width="64" height="14" rx="7" fill="#102038"/>
    <rect x="152" y="42" width="76" height="14" rx="7" fill="#102038"/>
    <rect x="18" y="42" width="58" height="14" rx="7" fill="#00FFC8" opacity="0.85">
      <animate attributeName="opacity" values="0.3;1;0.3" dur="1.8s" repeatCount="indefinite"/>
    </rect>
    <rect x="82" y="42" width="64" height="14" rx="7" fill="#FF4D7E" opacity="0.55">
      <animate attributeName="opacity" values="0.9;0.2;0.9" dur="2.4s" repeatCount="indefinite"/>
    </rect>
    <rect x="152" y="42" width="76" height="14" rx="7" fill="#7C5CFF" opacity="0.5">
      <animate attributeName="opacity" values="0.2;0.85;0.2" dur="3s" repeatCount="indefinite"/>
    </rect>
  </g>

  <g filter="url(#deckBlur)">
    <circle cx="896" cy="42" r="18" fill="#00FFC8" fill-opacity="0.14"/>
    <circle cx="844" cy="248" r="24" fill="#FF4D7E" fill-opacity="0.12"/>
    <circle cx="386" cy="46" r="22" fill="#00FFC8" fill-opacity="0.1"/>
  </g>
</svg>
